<?xml version="1.0" encoding="UTF-8" standalone="no"?>
<svg width="3000px" height="3000px" viewBox="0 0 3000 3000" version="1.1" xmlns="http://www.w3.org/2000/svg" xmlns:xlink="http://www.w3.org/1999/xlink" xmlns:sketch="http://www.bohemiancoding.com/sketch/ns">
    <!-- Generator: Sketch 3.4.3 (16618) - http://www.bohemiancoding.com/sketch -->
    <title>kylo-ren</title>
    <desc>Created with Sketch.</desc>
    <defs></defs>
    <g id="Page-1" stroke="none" stroke-width="1" fill="none" fill-rule="evenodd" sketch:type="MSPage">
        <g id="kylo-ren" sketch:type="MSArtboardGroup">
            <g id="helm" sketch:type="MSLayerGroup" transform="translate(471.000000, 91.000000)">
                <path d="M765.436093,2812.55295 L792.434618,2817.94192 L825.431392,2817.94192 L854.717711,2816.21745 L879.236191,2799.80803 L914.213156,2761.02763 L947.555983,2742.60408 L1002.04007,2742.60408 L1109.4446,2742.60408 L1185.30706,2744.40265 L1217.14392,2753.98155 L1246.6289,2771.73148 L1276.54965,2803.85649 L1305.26562,2813.96755 L1344.73486,2817.55796 L1383.19799,2804.38192 L1408.92765,2792.09506 L1418.90551,2767.13738 L1419.68092,2698.63007 L1465.83411,2574.13806 L1503.70766,2445.21363 L1567.0161,2311.64794 L1581.05046,2292.03208 L1620.29541,2251.59458 L1640.66767,2228.59714 L1650.21616,2198.41889 L1654.70203,2179.08595 L1661.33471,2163.13459 L1678.65016,2143.35033 L1694.39556,2118.41286 L1699.3877,2090.3902 L1710.44216,2080.42734 L1721.69528,2055.63806 L1732.58313,2034.66822 L1749.09113,1978.68353 L1779.17209,1881.44626 L1810.70775,1783.24571 L1826.45315,1754.79193 L1859.72549,1718.76665 L1885.22445,1672.26655 L1931.50581,1572.85348 L1945.68115,1522.40596 L1942.97041,1652.52944 L1948.66746,1689.89523 L1975.60408,1728.91028 C1975.91787,1729.36477 1976.54075,1729.97186 1977.01308,1730.27774 L2005.31758,1748.60808 L2035.56584,1755.35952 C2036.64494,1755.60038 2037.99227,1755.0348 2038.57554,1754.09571 L2053.89955,1729.42334 L2058.96217,1658.51793 L2052.47048,1558.7209 L1996.33943,1404.86573 L1969.62929,1306.09933 L1943.22033,1196.7234 L1911.31298,1038.98817 L1887.9352,831.849536 L1869.11377,680.6417 L1839.26351,534.425401 L1804.44035,443.702047 L1756.8645,353.719676 L1691.62073,266.573253 L1616.32862,183.475295 L1529.00156,116.234389 L1428.56935,61.4285378 L1344.88866,31.7016176 L1263.76492,15.2921959 L1176.47631,4.66244746 L1106.16992,1.07204445 L988.306902,0.398422872 L877.352126,5.18787229 L731.977915,20.0883816 L637.197903,43.6584006 L570.544292,74.2004029 L497.078568,119.326312 L435.961801,165.152788 L384.893382,212.771097 L329.403177,276.037636 L276.053373,355.996517 L241.94154,423.68875 L209.534338,496.392726 L187.931673,556.708802 L166.989071,668.260536 L153.973641,759.293755 L145.860626,854.968228 L137.318249,997.277522 L134.466518,1098.72493 L110.063388,1175.7805 L82.7188097,1275.50344 L48.5300764,1384.97368 L24.0372294,1476.76136 L9.01597524,1538.97705 L0.678666509,1587.64621 L0.678666509,1647.4638 L7.37542871,1699.27878 L21.4802838,1761.10376 L41.3526853,1795.31027 L54.0925545,1801.85113 L84.5131575,1773.53882 L123.053184,1739.83753 L136.587693,1715.80945 L136.882479,1582.76245 L141.43884,1538.20912 L166.989067,1617.12922 L190.475801,1652.23305 L210.008559,1681.95997 L210.937774,1709.88832 L218.999523,1729.42334 L263.326321,1783.24571 L293.170169,1814.41418 L308.101706,1881.44626 L337.836612,2002.51627 L358.067883,2055.63806 L369.961845,2080.42734 L391.160782,2096.25071 L402.753551,2105.29745 L402.753551,2124.69775 L411.231844,2148.2004 L464.735449,2214.81484 L474.783797,2243.80078 L498.507637,2261.55071 L512.682985,2276.97664 L541.097763,2308.18553 L564.456326,2341.79925 L599.439699,2412.77201 L645.400636,2483.23957 L675.167583,2574.58265 L722.865192,2702.5977 L749.004994,2751.63061 L752.491155,2785.69566 L765.436093,2812.55295 Z" id="Path-4" stroke="#EAEAEA" stroke-width="12" fill="#000000" sketch:type="MSShapeGroup"></path>
                <path d="M334.825794,269.751434 L372.24323,379.620426 L402.298555,480.468312 L429.57905,598.904458 L452.59156,741.220489 L466.766907,848.198331 L476.424343,954.138797" id="Path-32" stroke="#EAEAEA" stroke-width="12" sketch:type="MSShapeGroup"></path>
                <path d="M1678.67005,254.411135 L1648.55639,357.801823 L1629.11976,463.371797 L1612.73352,615.340824 L1603.41572,701.483552 L1598.28261,797.009828 L1589.73382,934.010984" id="Path-33" stroke="#EAEAEA" stroke-width="12" sketch:type="MSShapeGroup"></path>
                <path d="M812.729973,1766.79587 L790.422385,1771.96928 L768.909437,1799.75617 L738.988688,1821.83749 L701.159992,1831.87445 L675.02019,1817.64756 L643.529387,1796.37459 L612.262877,1771.36976 L580.201728,1737.80993 L567.871995,1737.88403 L571.223581,1759.60833 L578.490689,1788.2844 L598.798861,1808.57388 L632.269855,1832.45376 L652.437042,1844.81472 L654.788919,1866.61311 L641.818348,1884.88847 L615.249185,1908.93676 L597.158314,1902.94826 L584.758089,1885.87195 L577.920343,1859.8769 L562.104449,1839.06199 L523.500338,1801.6962 L496.931175,1787.46931 L476.629411,1785.67074 L472.207626,1802.08017 L478.334042,1830.08261 L499.577838,1843.78408 L550.07591,1883.16399 L582.483113,1915.66624 L594.787212,1935.71995 L589.79508,1953.03876 L571.044146,1960.2263 L559.214267,1955.50422 L548.53149,1943.66868 L532.715596,1919.47893 L523.737449,1904.79398 L503.865047,1894.1575 L487.049445,1892.36567 L476.930605,1896.09753 L478.071298,1912.12299 L481.986821,1929.42159 L495.591822,1943.12305 L515.393732,1976.73003 L512.048555,1989.54905 L496.508221,1994.72246 L463.165395,1986.33588 L443.292993,1957.20848 L435.179978,1932.65497 L412.391761,1918.11148 L381.900666,1851.18718 L345.148579,1763.89256 L260.133097,1649.51834 L319.918768,1766.52642 L357.318102,1869.24697 L388.014265,1966.86148 L402.253697,1997.61904 L400.61315,2031.91985 L385.213801,2056.19043 L369.968253,2063.37124 L355.863398,2053.33428 L338.83632,1997.69314 L311.036746,1887.02385 L290.664491,1817.8968 L213.956124,1726.39205 L200.864123,1672.49692 L163.823329,1604.66664 L161.407368,1530.1324 L158.126275,1405.47873 L163.823329,1203.12954 L186.162958,1072.03605 L213.808731,1014.38077 L237.891441,980.295522 L274.220575,949.894981 L311.478925,932.744575 L352.928358,927.429701 L409.488763,931.552265 L463.633207,945.846515 L524.186036,962.619692 L618.63922,994.886166 L723.768774,1022.14089 L816.357119,1045.42799 L891.213463,1065.50192 L929.682997,1070.81679 L1004.10998,1073.74031 L1104.17691,1070.21727 L1179.65487,1063.02972 L1256.93358,1040.94841 L1371.16945,1001.27883 L1515.67853,950.083595 L1627.7804,916.213902 L1673.01719,904.378371 L1704.55285,899.588921 L1744.45787,901.313393 L1780.00518,911.350354 L1812.63667,937.722639 L1835.79017,968.958471 L1858.85395,1013.05374 L1876.51545,1062.25506 L1889.12075,1125.69 L1900.13035,1198.19863 L1908.10879,1302.73123 L1916.51659,1406.57673 L1922.21365,1497.83898 L1919.29142,1543.75976 L1914.85041,1572.00472 L1891.70333,1624.22386 L1854.30399,1696.77964 L1820.46131,1764.16201 L1800.36462,1805.05084 L1789.041,1840.69215 L1772.58427,1904.10015 L1753.99354,1966.02618 L1739.79897,2029.33988 L1723.54731,2044.02483 L1698.61869,2022.5363 L1703.67491,1987.56187 L1738.45321,1880.20006 L1755.54437,1811.47719 L1824.27436,1692.87935 L1824.2743,1645.77975 L1782.88895,1685.09231 L1763.65739,1739.97226 L1737.58808,1782.72702 L1720.13164,1830.35206 L1695.2671,1880.89389 L1668.62745,1924.32227 L1638.77719,1965.35256 L1607.92082,1967.07703 L1578.50633,1953.97509 L1581.21708,1918.9333 L1581.21708,1880.89389 L1566.24068,1877.29675 L1548.79065,1889.65771 L1530.69337,1906.43088 L1502.98352,1907.62319 L1491.08955,1884.34283 L1495.57542,1868.991 L1543.9331,1832.52786 L1566.31118,1794.42109 L1571.3738,1761.69655 L1574.71898,1749.40969 L1556.26283,1749.40969 L1539.94708,1758.32171 L1517.7997,1778.61119 L1510.96196,1806.08821 L1497.85681,1834.09066 L1472.28735,1868.53293 L1444.00715,1868.53293 L1425.27544,1853.0329 L1426.98648,1835.21561 L1455.47175,1813.12756 L1461.66866,1789.91456 L1463.30921,1766.84976 L1447.06395,1775.16225 L1413.86211,1794.17858 L1379.17352,1794.17858 L1352.03401,1780.62532 L1330.72613,1780.62532 L1314.98073,1772.45429 L1187.62049,1649.51835 L1003.6678,1649.51835 L883.728469,1692.87937 L812.729973,1766.79587 Z" id="Path-22" fill="#EAEAEA" sketch:type="MSShapeGroup"></path>
                <path d="M818.388577,2569.0859 L908.836521,2576.55637 L941.673085,2570.56787 L954.438588,2554.69061 L956.143218,2532.15123 L943.749402,2522.71379 L914.463083,2519.11665 L852.14154,2519.11665 L819.298568,2519.11665 L808.045444,2524.43826 L803.553166,2541.22491 L806.834259,2557.56024 L818.388577,2569.0859 Z" id="Path-6" stroke="#EAEAEA" stroke-width="12" sketch:type="MSShapeGroup"></path>
                <path d="M1458.57982,2109.75008 L1374.67483,2123.45155 L1364.12022,2131.68994 L1367.40132,2148.16672 L1384.08234,2151.76386 L1429.17815,2145.3173 L1470.15336,2133.41441 L1471.79391,2120.06997 L1458.57982,2109.75008 Z" id="Path-7" stroke="#EAEAEA" stroke-width="12" sketch:type="MSShapeGroup"></path>
                <path d="M923.473272,1543.57115 L1109.15622,1545.36972 L1236.97787,1547.16829 L1296.02473,1560.65419 L1329.86741,1567.16811 L1392.12487,1570.69115 L1458.45806,1568.96668 L1499.56785,1558.92972 L1537.39654,1533.39273 L1576.86579,1488.09168 L1585.34408,1439.03855 L1582.42826,1378.47997 L1560.55004,1346.50316 L1531.49442,1339.38971 L1495.37676,1345.82954 L1408.91484,1370.02602 L1259.21496,1407.97113 L1187.33852,1423.46442 L1108.35518,1433.35992 L1029.5769,1435.08439 L937.482002,1435.08439 L863.33058,1422.43378 L757.842157,1404.08433 L674.212734,1384.0845 L601.836435,1370.38304 L564.302525,1365.06817 L543.564991,1368.05905 L528.819298,1382.21857 L523.897658,1404.46829 L521.116419,1425.59307 L519.411789,1464.83152 L523.968151,1488.06473 L536.932313,1517.65019 L554.388754,1528.95356 L587.795664,1549.70111 L634.448706,1567.66659 L687.157671,1571.257 L736.72012,1570.20615 L786.288977,1560.09509 L836.492264,1548.33365 L895.039268,1543.16024 L923.473272,1543.57115 Z" id="Path-9" fill="#000000" sketch:type="MSShapeGroup"></path>
                <path d="M345.718925,1715.29076 L382.406929,1739.62871 L413.404286,1763.51533 L441.338436,1804.99695 L404.720925,1809.64494 L382.432562,1797.28398 L374.595107,1778.62466 L357.843589,1743.50877 L345.718925,1715.29076 Z" id="Path-21" fill="#000000" sketch:type="MSShapeGroup"></path>
                <path d="M463.428139,1634.6852 L467.779432,1673.91692 L480.038672,1699.95913 L506.107982,1728.56111 L532.632287,1740.98942 L532.702779,1701.44784 L516.387031,1670.23221 L497.084976,1647.01921 L463.428139,1634.6852 Z" id="Path-24" fill="#000000" sketch:type="MSShapeGroup"></path>
                <path d="M551.274278,1614.20711 L551.274278,1644.38535 L555.19621,1682.57296 L575.363397,1692.46173 L586.917715,1672.3878 L591.403585,1612.64431 L570.185422,1605.45676 L551.274278,1614.20711 Z" id="Path-25" fill="#000000" sketch:type="MSShapeGroup"></path>
                <path d="M857.056771,1693.75508 L782.264511,1695.62101 L765.807779,1657.96557 L712.509242,1656.24109 L687.010279,1722.14149 L654.237798,1719.14388 L635.576582,1703.79204 L635.576582,1643.54333 L653.462384,1623.32794 L702.255826,1625.11978 L739.873045,1621.81903 L835.268263,1589.2629 L898.371629,1562.09574 L1214.33064,1562.76936 L1258.29216,1584.78332 L1307.30989,1602.07518 L1375.19391,1609.26273 L1451.12687,1607.61235 L1469.94829,1607.61235 L1475.00451,1638.46422 L1477.92032,1657.91841 L1494.031,1669.00622 L1488.97479,1688.26506 L1465.89179,1694.77898 L1444.08405,1691.33004 L1438.95734,1662.20264 L1419.65529,1649.10071 L1388.45927,1647.90166 L1366.44006,1649.62613 L1342.21637,1670.8991 L1307.2394,1679.80438 L1266.35391,1679.80438 L1239.48996,1671.04056 L1189.71603,1599.2325 L914.04013,1601.4824" id="Path-26" fill="#000000" sketch:type="MSShapeGroup"></path>
                <path d="M1644.06411,2193.32631 C1657.56017,2189.59445 1696.33731,2116.27074 1696.33731,2116.27074 C1696.33731,2116.27074 1676.83174,2074.80827 1664.57094,2068.90841 C1638.15287,2056.19611 1558.49295,2020.73773 1558.49295,2020.73773 L1512.55124,1988.97647 L1465.81488,1954.00204 L1419.44381,1896.56233 L1331.70661,1789.12642 L1254.99825,1695.53344 L1211.76728,1630.1652 L1189.88906,1600.12842 L1159.83373,1596.60538 L1036.6838,1598.40395 L913.104505,1600.20252 L891.521065,1635.24431 L865.15697,1682.3574 L823.77162,1749.84081 L803.469857,1777.69506 L784.507446,1805.86592 L716.187655,1891.07231 L642.081092,1990.31698 L597.779928,2025.21731 L568.359033,2052.76844 L516.060204,2076.57422 L467.773024,2096.19682 L413.634463,2154.94491 C412.884431,2155.7588 412.812614,2157.14767 413.462537,2158.03137 L448.233858,2205.31004 L475.597201,2245.02998 C476.223903,2245.93968 477.534821,2246.29984 478.546702,2245.82431 L524.134769,2224.40048 L586.456311,2205.31004 L637.870783,2164.87254 L726.972967,2060.81148 L813.364403,1944.18064 L886.016263,1824.45787 L1238.17624,1816.14538 L1260.25953,1869.67809 L1315.45495,1946.26213 L1440.01473,2071.81172 L1525.9768,2156.41859 L1573.05921,2183.36345 C1573.05921,2183.36345 1591.0899,2185.69112 1600.10525,2186.85496 C1605.00464,2187.48745 1630.56805,2189.59445 1630.56805,2189.59445 C1630.56805,2189.59445 1630.56805,2197.05818 1644.06411,2193.32631 Z" id="Path-8" stroke="#EAEAEA" stroke-width="12" fill="#000000" sketch:type="MSShapeGroup"></path>
                <path d="M905.724962,1691.36221 L959.153057,1699.30454 L1023.7882,1702.76592 L1086.70584,1702.76592 L1140.48609,1695.97954 L1193.51878,1685.58892 L1198.33151,1673.74362 L1196.13211,1663.11921 L1180.3025,1656.32644 L1159.98296,1661.73514 L1125.51128,1669.34597 L1092.00788,1673.74362 L1062.43721,1676.65021 L1009.1473,1675.22109 L971.963957,1672.00968 L932.07373,1667.02219 L908.356827,1667.02219 L899.355354,1672.00968 L897.773764,1682.6276 L905.724962,1691.36221 Z" id="Path-10" stroke="#EAEAEA" stroke-width="12" sketch:type="MSShapeGroup"></path>
                <path d="M886.948976,1745.44014 L949.055657,1759.22694 L972.374699,1763.67854 L1023.95058,1765.35024 L1092.5318,1764.36725 L1149.46838,1759.55878 L1201.31826,1750.71819 L1234.23295,1742.4411 L1238.80741,1731.08358 L1235.75777,1719.86379 L1224.89342,1717.1465 L1200.38311,1721.46662 L1160.86285,1731.42167 L1116.36308,1736.36163 L1066.0559,1738.65317 L1005.98628,1736.98773 L957.126488,1733.64434 L915.205819,1725.91822 L895.597571,1721.10974 L883.2084,1721.04713 L877.508189,1730.7267 L877.508189,1740.34365 L886.948976,1745.44014 Z" id="Path-11" stroke="#EAEAEA" stroke-width="12" sketch:type="MSShapeGroup"></path>
                <path d="M1235.22838,1818.26208 L1270.91668,1795.99195 L1289.94317,1787.89502 L1289.94317,1775.076 L1281.02911,1765.11314 L1256.67084,1766.31219 L1235.22838,1773.42563 L1194.54795,1782.19618 L1145.19057,1790.28638 L1084.9133,1792.01085 L1005.56468,1793.1358 L934.764846,1791.94349 L889.662634,1783.03148 L856.371074,1777.78396 L836.203887,1775.98539 L822.534802,1777.5684 L817.97844,1790.98021 L826.315749,1802.14212 L851.974922,1807.46373 L889.662633,1826.16404" id="Path-12" stroke="#EAEAEA" stroke-width="12" sketch:type="MSShapeGroup"></path>
                <path d="M1572.55935,1545.30909 L1537.4414,1568.51536 L1539.08195,1580.87631 L1549.63015,1587.98976 L1566.51624,1585.07297 L1585.97851,1569.7144 L1582.55643,1554.28847 L1572.55935,1545.30909 Z" id="Path-30" fill="#000000" sketch:type="MSShapeGroup"></path>
                <path d="M1547.43848,1650.34691 L1545.79794,1702.53911 L1565.33069,1700.74727 L1597.52642,1676.93475 L1602.08919,1657.38625 L1602.08919,1623.01808 L1586.90773,1621.81903 L1571.87365,1626.53438 L1547.43848,1650.34691 Z" id="Path-31" fill="#000000" sketch:type="MSShapeGroup"></path>
                <path d="M1625.76176,1843.62241 L1627.4728,1865.4949 L1632.45852,1891.69878 L1654.97759,1877.47189 L1690.72997,1828.65454 L1709.46168,1798.70532 L1716.86977,1772.05012 L1718.58081,1742.08069 L1697.13194,1753.3908 L1653.90098,1803.69686 L1625.76176,1843.62241 Z" id="Path-33" fill="#000000" sketch:type="MSShapeGroup"></path>
                <path d="M319.63039,1754.97381 L269.196401,1673.50602 L212.001566,1572.78612 L190.91798,1533.3321 L193.128873,1258.95256 L202.811942,1157.50515 L216.19265,1092.75664 L244.338276,1045.06424 L287.402623,997.836628 L329.723596,984.445031 L371.038454,984.445031 L436.711582,995.222977 L508.357325,1012.44748 L622.599602,1050.25112 L757.278219,1087.23295 L848.661787,1107.52243 L907.574069,1117.10806 L1014.83762,1121.96488 L1121.23603,1119.18956 L1221.96302,1098.97417 L1365.69028,1053.29589 L1549.4379,991.679727 L1635.89983,961.353284 L1669.60152,954.839363 L1704.44391,953.640317 L1738.28659,960.827859 L1779.67194,983.515434 L1809.65678,1014.89273 L1840.69258,1067.84612 L1853.79773,1115.46443 L1870.11348,1193.92113 L1879.73246,1262.35435 L1886.36514,1348.83389 L1884.58361,1447.14222 L1884.58361,1504.87159 L1864.98677,1565.8074 L1831.57986,1637.38643 L1812.91864,1681.93976 L1792.53998,1723.73798 L1770.46309,1794.35373 L1854.23991,1507.10801 L1861.50702,1475.94628 L1865.49303,1347.54727 L1850.61276,1188.44459 L1834.73279,1128.15546 L1809.86825,1075.6736 L1781.0882,1036.6507 L1740.741,1013.36361 L1707.0329,1006.32426 L1673.83106,1008.11609 L1633.36211,1016.50268 L1581.42856,1037.70155 L1501.50959,1067.50257 L1422.7954,1097.68082 L1352.61077,1130.56702 L1263.28429,1156.62944 L1193.68282,1175.71988 L1141.11484,1184.10647 L1085.05429,1187.62951 L998.912779,1189.35398 L934.380343,1187.55541 L859.658576,1179.16882 L770.415408,1158.28655 L642.292569,1115.45096 L444.651571,1051.41649 L390.577619,1040.8541 L348.39763,1033.21523 L317.76555,1034.9397 L295.252894,1047.89345 L270.965116,1078.3883 L246.600436,1123.89817 L230.214196,1165.84459 L223.382858,1220.12501 L221.601327,1281.22923 L221.101473,1369.28504 L219.460926,1453.15092 L217.82038,1505.80119 L223.946796,1548.03052 L242.044075,1594.98195 L271.964824,1657.73653 L319.63039,1754.97381 Z" id="Path-23" fill="#000000" sketch:type="MSShapeGroup"></path>
                <path d="M246.645295,1536.2893 L251.201657,1338.64199 L253.412549,1252.23655 L263.102027,1190.39136 L280.552059,1146.04685 L302.705846,1113.32905 L325.218502,1090.86377 L348.87185,1083.81769 L397.460225,1087.34073 L460.352114,1099.24362 L506.934663,1116.60958 L612.262877,1147.68375 L736.258716,1184.59147 L819.663846,1200.83249 L927.068376,1218.65652 L1035.90838,1221.65413 L1172.5736,1217.08024 L1322.0684,1184.35571 L1453.53642,1141.83671 L1573.23864,1092.94526 L1664.80805,1066.45172 L1707.05853,1066.45172 L1753.16045,1076.41459 L1775.17326,1098.7384 L1794.47531,1132.51379 L1811.29091,1196.30575 L1822.55045,1254.17658 L1825.83154,1302.77838 L1830.31741,1360.96581 L1831.4581,1425.80862 L1831.4581,1464.60923 L1826.90174,1501.38223 L1812.22654,1521.30796 L1806.59998,1371.1375 L1795.26995,1263.39173 L1777.74943,1183.95827 L1748.39262,1135.14091 L1718.54236,1119.85644 L1678.86805,1115.06699 L1645.7367,1120.45596 L1601.14075,1133.5579 L1494.94099,1174.95195 L1393.03486,1216.72996 L1300.64517,1250.04728 L1251.99271,1262.40824 L1187.72943,1274.76919 L1134.72568,1282.40806 L1077.59493,1290.72055 L1030.85858,1292.37766 L957.072434,1291.17862 L873.366111,1282.86613 L789.256059,1267.292 L656.211581,1224.17348 L553.260878,1192.99827 L447.496894,1151.36846 L399.504499,1141.54706 L370.013112,1141.54706 L340.662709,1153.44995 L316.009653,1171.65794 L299.693905,1212.54677 L288.870143,1252.52621 L284.948211,1286.82702 L283.237173,1318.35251 L282.166972,1370.09338 L282.942387,1428.63784 L276.745479,1469.66813 L266.351078,1511.23058 L259.08397,1554.58486 L246.645295,1536.2893 Z" id="Path-24" fill="#000000" sketch:type="MSShapeGroup"></path>
                <path d="M332.376668,1647.5379 L332.017798,1518.22951 L330.306759,1443.13417 L329.307051,1335.77236 L339.419483,1295.93438 L353.889616,1267.40651 L383.746281,1254.37867 L406.117953,1252.6542 L449.009273,1258.5686 L497.22596,1266.95518 L564.110273,1286.49695 L630.360156,1309.11042 L728.145701,1341.83496 L793.45996,1360.32587 L857.992396,1371.56188 L930.144401,1379.94173 L988.479928,1384.13839 L1054.22996,1385.3307 L1144.60741,1377.69184 L1252.78735,1363.77481 L1378.28276,1319.74691 L1549.56607,1260.60293 L1631.88818,1232.46576 L1670.42821,1226.10004 L1706.61635,1227.89187 L1725.20708,1234.41253 L1736.96647,1261.31024 L1740.31805,1292.08801 L1741.9586,1375.18596 L1743.59914,1442.117 L1746.94432,1492.27487 L1751.36611,1520.13585 L1754.58312,1586.39327 L1757.29386,1618.13432 L1769.41212,1625.77319 L1780.74214,1608.91244 L1785.369,1535.46748 L1782.01741,1475.27266 L1773.46863,1400.48719 L1770.05296,1316.83686 L1756.58253,1256.49384 L1743.75294,1198.02349 L1725.66207,1178.54909 L1701.14359,1171.50974 L1662.60998,1171.50974 L1622.99975,1178.62319 L1579.61498,1196.44048 L1479.82361,1226.1674 L1360.64047,1270.57927 L1276.37021,1292.0678 L1201.44337,1309.43376 L1118.67268,1320.81123 L1029.91014,1327.78321 L919.346272,1322.99376 L844.054158,1312.28318 L663.151862,1272.7618 L499.917482,1219.31667 L416.858406,1204.16018 L366.020688,1204.16018 L330.74253,1221.24322 L313.151513,1275.83352 L308.595152,1337.96837 L304.538644,1435.75128 L303.032673,1485.55212 L303.032673,1510.65126 L295.195219,1522.94486 L286.851502,1543.39601 L285.146871,1568.25938 L288.427964,1590.51584 L295.836057,1615.97873 L304.102874,1631.78189 L319.277929,1641.81886 L332.376668,1647.5379 Z" id="Path-25" fill="#000000" sketch:type="MSShapeGroup"></path>
                <path d="M538.547226,1343.92992 L476.084699,1340.40688 L440.825765,1343.4045 L430.642842,1358.68223 L428.931803,1404.58281 L430.501857,1441.27498 L423.234749,1479.84655 L414.186109,1505.08715 L415.897148,1529.20954 L406.848508,1558.57944 L400.722093,1582.62773 L405.643732,1604.80335 L418.543811,1630.26625 L434.859559,1658.72676 L449.09899,1687.61839 L453.591268,1707.30835 L450.739537,1727.23407 L431.347764,1727.23407 L407.418855,1706.94459 L389.89833,1696.30811 L364.899221,1664.04163 L366.603851,1616.56478 L374.377222,1589.90284 L386.341677,1552.39559 L379.638506,1501.77967 L371.096129,1430.80016 L365.969421,1355.48927 L371.025637,1322.74452 L391.333809,1309.64258 L412.27641,1304.32771 L461.499215,1310.31621 L512.221581,1324.68455 L538.547226,1343.92992 Z" id="Path-26" fill="#000000" sketch:type="MSShapeGroup"></path>
                <path d="M505.960589,1513.27165 L499.193335,1541.65806 L486.729026,1573.18355 L472.829239,1586.88502 L457.218414,1588.60949 L442.043358,1585.01235 L442.043358,1571.07512 L452.662052,1549.20263 L470.112084,1517.22581 L480.942254,1486.832 L482.076539,1446.3945 L485.428124,1408.95461 L492.836217,1386.4826 L508.511126,1384.75813 L501.109442,1409.7697 L497.687364,1445.55921 L497.687364,1496.84202 L505.960589,1513.27165 Z" id="Path-27" fill="#000000" sketch:type="MSShapeGroup"></path>
                <path d="M1628.58145,1779.96517 L1674.88844,1740.51115 L1684.50743,1696.26769 L1700.89367,1650.51531 L1715.63295,1608.35334 L1716.77364,1550.02444 L1713.92832,1498.35767 L1699.88755,1482.40631 L1697.88173,1429.25083 L1699.59276,1380.28528 L1703.01484,1323.68086 L1704.65539,1293.50261 L1691.88989,1284.6647 L1668.87738,1281.14166 L1629.8375,1287.05605 L1565.43964,1307.20407 L1619.72506,1312.45159 L1655.47744,1320.54178 L1658.75854,1330.96271 L1663.3149,1358.15007 L1669.5823,1426.13196 L1673.00438,1479.14598 L1675.77921,1514.8614 L1680.20099,1588.97324 L1674.07458,1619.879 L1652.26684,1658.9019 L1630.6834,1702.25618 L1624.62107,1731.90901 L1628.58145,1779.96517 Z" id="Path-28" fill="#000000" sketch:type="MSShapeGroup"></path>
                <path d="M1615.48912,1374.47866 L1620.04548,1430.55766 L1615.48912,1470.77287 L1620.41076,1491.44631 L1633.37492,1508.07129 L1645.70466,1526.94617 L1651.33122,1539.97401 L1649.69067,1553.24435 L1637.43143,1557.96644 L1621.04519,1553.17026 L1609.72158,1539.46879 L1592.13056,1512.42962 L1592.13056,1484.04321 L1598.96831,1435.44141 L1597.8917,1385.42501 L1588.20863,1347.52706 L1580.94152,1328.87448 L1608.51039,1330.66631 L1621.55145,1347.74936 L1615.48912,1374.47866 Z" id="Path-29" fill="#000000" sketch:type="MSShapeGroup"></path>
            </g>
        </g>
    </g>
</svg>